<svg width="19" height="25" viewBox="0 0 19 25" fill="none" xmlns="http://www.w3.org/2000/svg">
<path d="M18.517 22.6493L18.1588 20.9776C17.4207 17.5332 16.0684 14.2964 14.1388 11.3529V8.64058C15.0276 7.97178 15.6036 6.9084 15.6036 5.71289V4.24805C15.6036 3.84355 15.2757 3.51562 14.8712 3.51562H14.1388V0.732422C14.1388 0.32793 13.8108 0 13.4063 0C13.0018 0 12.6739 0.32793 12.6739 0.732422V3.52339C11.3585 3.6001 10.206 4.29209 9.50009 5.31528C8.79418 4.29209 7.64169 3.6001 6.32626 3.52339V0.732422C6.32626 0.32793 5.99833 0 5.59384 0C5.18935 0 4.86142 0.32793 4.86142 0.732422V3.51562H4.12899C3.7245 3.51562 3.39657 3.84355 3.39657 4.24805V5.71289C3.39657 6.9084 3.97255 7.97178 4.86142 8.64058V11.3529C2.93183 14.2964 1.57943 17.5332 0.841348 20.9776L0.483145 22.6493C0.406582 23.0066 0.605166 23.3658 0.948623 23.4909C3.6975 24.4923 6.5746 25 9.50009 25C12.4256 25 15.3027 24.4923 18.0516 23.4909C18.395 23.3658 18.5936 23.0067 18.517 22.6493ZM12.9181 4.98047H14.1388V5.71289C14.1388 6.92446 13.1531 7.91016 11.9415 7.91016H10.2325V7.66602C10.2325 6.1852 11.4372 4.98047 12.9181 4.98047ZM4.86142 4.98047H6.08212C7.56293 4.98047 8.76767 6.1852 8.76767 7.66602V7.91016H7.05868C5.84711 7.91016 4.86142 6.92446 4.86142 5.71289V4.98047ZM7.05868 9.375H11.9415C12.1923 9.375 12.4372 9.34956 12.6739 9.30132V10.8398H6.32626V9.30132C6.56298 9.34956 6.8079 9.375 7.05868 9.375ZM9.50009 23.5352C6.95859 23.5352 4.4557 23.128 2.05082 22.3244L2.27362 21.2846C2.96127 18.0757 4.21064 15.0566 5.9891 12.3047L13.011 12.3047C14.7895 15.0566 16.0389 18.0757 16.7265 21.2845L16.9493 22.3244C14.5445 23.128 12.0416 23.5352 9.50009 23.5352Z" fill="black"/>
</svg>
