<svg width="17" height="17" viewBox="0 0 17 17" fill="none" xmlns="http://www.w3.org/2000/svg">
<g clip-path="url(#clip0_26870_323)">
<path d="M2.25235 4.81643C0.750523 6.31823 0.750523 8.7618 2.25232 10.2636L3.05001 9.46592C1.9881 8.40402 1.98807 6.67613 3.05004 5.61417C4.11197 4.55224 5.83985 4.55224 6.90179 5.61414L7.69947 4.81646C6.1977 3.31463 3.75412 3.31466 2.25235 4.81643Z" fill="#6E9C9F"/>
<path d="M3.84133 6.39119C3.20916 7.02336 3.20913 8.05201 3.8413 8.68421L4.63901 7.88653C4.54584 7.79335 4.49453 7.66947 4.49453 7.53772C4.49453 7.40599 4.54587 7.2821 4.63904 7.18893C4.73221 7.09576 4.8561 7.04444 4.98782 7.04444C5.11958 7.04444 5.24349 7.09576 5.33664 7.18893L6.13432 6.39122C5.50215 5.75902 4.4735 5.75902 3.84133 6.39119Z" fill="#6E9C9F"/>
<path d="M13.7482 4.43513L11.855 2.54848L7.92331 6.47367L9.44752 8.04781C9.19208 8.50125 8.63784 9.3699 7.69327 10.3145C6.74859 11.2592 5.8736 11.8197 5.41581 12.0792L3.87255 10.5556L0.00219727 14.4029L1.88504 16.2983C2.60479 17.0181 3.69992 17.2046 4.61014 16.7625C5.99915 16.0879 8.0954 14.8431 10.1942 12.7443C12.2931 10.6455 13.5378 8.54924 14.2124 7.16023C14.3723 6.83109 14.4499 6.47787 14.4499 6.12692C14.4499 5.5072 14.2077 4.89464 13.7482 4.43513ZM13.1977 6.66732C12.5609 7.97846 11.3845 9.95865 9.39655 11.9466C7.40862 13.9345 5.42842 15.1109 4.11729 15.7477C3.63929 15.9799 3.06281 15.8806 2.68414 15.5019L1.59739 14.4079L3.87537 12.1436L5.19009 13.4415L5.54183 13.2849C5.59899 13.2595 6.95941 12.6438 8.4911 11.1121C10.0238 9.57947 10.6266 8.23054 10.6515 8.17386L10.804 7.82683L9.50671 6.48705L11.8558 4.14178L12.9511 5.23327C13.3306 5.6133 13.4298 6.18952 13.1977 6.66732Z" fill="#6E9C9F"/>
</g>
<defs>
<clipPath id="clip0_26870_323">
<rect width="17" height="17" fill="white"/>
</clipPath>
</defs>
</svg>
